# xmcd
# 
# Track frame offsets:
#     150
#     17159
#     36215
#     53203
#     80571
#     95514
#     114696
#     130465
#     147638
#     168955
# 
# Disc length: 2573
# 
# Revision: 0
# Processed by: cddbd v1.5.2PL0 Copyright (c) Steve Scherf et al.
# Submitted via: fre:ac v1.1beta1pre4
# 
DISCID=8d0a0b0a
DTITLE=Various Artist - Stockfisch Vinyl Collection
DYEAR=2006
DGENRE=
TTITLE0=Chris Jones - No Sanctuary Here
TTITLE1=Sara K - Stars
TTITLE2=Paul Stephenson - Captain Of The Loving Kind
TTITLE3=Christian Willinsohn - Caruso
TTITLE4=David Roth - Song For You Far Away
TTITLE5=Steve Strauss - Closer
TTITLE6=Ewen Carruthers - Paris
TTITLE7=Eugene Ruffolo - The Same Kind Words
TTITLE8=Mike Silver - Heaven
TTITLE9=Louis Capart and Duo Balance - Au Large Du Gueveur
EXTD=
EXTT0=
EXTT1=
EXTT2=
EXTT3=
EXTT4=
EXTT5=
EXTT6=
EXTT7=
EXTT8=
EXTT9=
PLAYORDER=
